<svg xmlns="http://www.w3.org/2000/svg" viewBox="0 0 38 37">
  <g fill="#333" fill-rule="evenodd">
    <path d="M35.45 9.463c-1.698-2.91-4.002-5.216-6.913-6.915C25.627.848 22.447 0 19 0c-3.447 0-6.626.85-9.537 2.548-2.91 1.7-5.216 4.004-6.915 6.915C.848 12.373 0 15.553 0 19c0 4.14 1.208 7.862 3.624 11.17 2.416 3.306 5.538 5.594 9.364 6.864.445.083.775.025.99-.173.214-.197.32-.444.32-.74l-.01-1.337c-.01-.84-.014-1.575-.014-2.2l-.57.097c-.362.067-.82.095-1.372.087-.552-.008-1.126-.066-1.72-.173-.593-.107-1.146-.354-1.657-.742-.51-.387-.874-.895-1.088-1.52l-.248-.57c-.166-.38-.425-.8-.78-1.262-.355-.462-.713-.775-1.076-.94l-.173-.124c-.115-.082-.222-.182-.32-.297-.1-.116-.174-.232-.223-.347-.05-.116-.01-.21.123-.285.133-.075.37-.11.718-.11l.494.073c.33.067.738.265 1.225.595.487.33.886.758 1.2 1.286.38.677.837 1.192 1.373 1.547s1.076.532 1.62.532 1.014-.042 1.41-.125c.396-.082.767-.206 1.114-.37.148-1.106.552-1.956 1.212-2.55-.94-.098-1.786-.247-2.536-.445s-1.526-.52-2.325-.965c-.8-.445-1.464-.998-1.992-1.657-.528-.66-.96-1.526-1.3-2.598-.337-1.072-.506-2.31-.506-3.71 0-1.997.652-3.695 1.955-5.097-.61-1.5-.553-3.183.173-5.047.478-.148 1.187-.037 2.127.334.94.37 1.63.69 2.066.953.437.263.788.487 1.052.668 1.534-.428 3.117-.642 4.75-.642 1.632 0 3.216.214 4.75.643l.94-.593c.643-.396 1.402-.76 2.276-1.088.874-.33 1.542-.422 2.004-.273.742 1.863.808 3.545.198 5.046 1.303 1.402 1.955 3.1 1.955 5.097 0 1.4-.17 2.642-.508 3.723-.338 1.08-.774 1.945-1.31 2.597-.537.652-1.205 1.2-2.005 1.645-.8.446-1.575.767-2.325.965-.75.198-1.596.347-2.536.446.856.742 1.285 1.913 1.285 3.513v5.218c0 .297.103.545.31.742.206.198.53.256.977.173 3.826-1.27 6.948-3.558 9.364-6.865C36.792 26.862 38 23.138 38 18.998c0-3.446-.85-6.624-2.55-9.535z"/>
  </g>
</svg>
