<svg viewBox="0 0 38 32" xmlns="http://www.w3.org/2000/svg"><title>Twitter</title><path d="M36.76.618c-1.486.902-3.128 1.558-4.883 1.91C30.48.997 28.48.04 26.27.04c-4.24 0-7.682 3.53-7.682 7.88 0 .618.066 1.217.198 1.794C12.4 9.384 6.74 6.252 2.946 1.48 2.287 2.646 1.907 4 1.907 5.444c0 2.732 1.357 5.144 3.42 6.557-1.258-.038-2.445-.396-3.483-.982v.096c0 3.82 2.65 7.005 6.167 7.726-.644.185-1.324.278-2.025.278-.495 0-.978-.048-1.446-.14.977 3.13 3.813 5.408 7.176 5.47-2.63 2.113-5.944 3.373-9.543 3.373-.62 0-1.233-.036-1.833-.108 3.4 2.232 7.44 3.537 11.78 3.537 14.134 0 21.86-12.004 21.86-22.417 0-.343-.005-.685-.018-1.02 1.5-1.112 2.805-2.5 3.83-4.08-1.375.627-2.857 1.05-4.41 1.24C34.967 4.003 36.185 2.46 36.76.62" fill-rule="evenodd"/></svg>
